<?xml version="1.0" encoding="utf-8"?>
<svg xmlns="http://www.w3.org/2000/svg" viewBox="135 245 570 75">
  <g fill="#FFFFFF" fill-rule="evenodd">
    <path d="M286.3,248.4c-0.3,0.1-0.6,0.1-0.9,0.2c0,0,0,0,0,0c14.4,0.3,29.6,7.8,35.1,21.7c3,7.7,2.8,16.6-0.8,24c-11.9,23.6-48.9,26-67.3,8.9c-7.2-6.4-11-16.1-9.6-25.7c2.3-17.8,20.6-28.4,37.3-28.9c-0.2,0-0.4-0.1-0.6-0.2C281.9,248.4,284.1,248.4,286.3,248.4z M282.9,300.4c8.3,0.1,17.2-4.3,20.3-12.4c1.9-5.3,1.5-11.5-1.6-16.3c-8.5-13.3-32.3-12.5-38.8,2.3C257.3,288.5,268.1,300.6,282.9,300.4z" />
    <path d="M150.6,249.8c6.9,0,13.7,0,20.6,0c7.6,15.2,15.3,30.4,22.9,45.6c7.5-15,14.7-30.2,22.1-45.3c0.1-0.3,0.3-0.4,0.6-0.4c6.6,0,13.2,0,19.7,0c0.3,20.8,0,41.8,0.1,62.7c-5.9,0-11.7,0-17.7,0c0-11.1,0-22.2,0-33.3c0,0-0.1,0-0.1,0c-5.4,10.9-10.7,21.9-16.1,32.9c-0.2,0.4-0.4,0.5-0.8,0.5c-5.2,0-10.4,0-15.7,0c-0.4,0-0.7-0.1-0.9-0.5c-4.4-8.7-8.9-17.4-13.4-26.1c-1.3-2.4-2.4-5.2-4-7.4c0,11.3,0,22.6,0,34c-5.9,0-11.7,0-17.5,0c0,0,0,0,0,0C150.6,291.6,150.5,270.7,150.6,249.8z" />
    <path d="M632.1,312.5c-5.9,0-11.7,0-17.6,0c0-20.9,0-41.7,0-62.6c5.7-0.2,11.4,0,17.1-0.1c0.3,0,0.5,0.1,0.7,0.3c3.9,3.9,7.9,7.8,11.9,11.7c9.9,9.8,19.8,19.6,29.7,29.4c0-13.8,0-27.6,0-41.3c5.9,0,11.7,0,17.6,0c0,20.9,0,41.7,0,62.6c-5.7,0.1-11.4-0.1-17.1,0.1c-0.3,0-0.6-0.1-0.8-0.3c-2.4-2.4-4.8-4.8-7.3-7.2c-11.5-11.2-22.7-22.7-34.3-33.8C632.1,285,632.1,298.7,632.1,312.5z" />
    <path d="M345.8,292.2c0,6.8,0,13.5,0,20.2c-5.7,0-11.2,0-16.9,0c0-20.9,0-41.7,0-62.6c15.3-0.2,30.6,0,46-0.1c3,0,6,0.3,9,1c9.8,2.2,18,9.8,17.5,20.4c0.1,10.9-7.5,17.9-17.6,20.2c5.9,7.1,12.1,14,18.1,21.1c-6.8,0-13.5,0-20.2,0c-0.5,0-0.9-0.1-1.2-0.6c-5.5-6.4-10.9-12.8-16.4-19.1c-0.4-0.4-0.7-0.6-1.3-0.6C357.1,292.2,351.4,292.2,345.8,292.2z M345.8,262.8c0,5.4,0,10.6,0,15.9c0,0.2-0.1,0.5,0.2,0.6c8.8,0,17.7,0,26.5,0c8.4,0.1,13-1.4,11.6-10.9c-0.8-5.4-6.3-5.9-10.7-5.8C364.2,262.7,355,262.8,345.8,262.8z" />
    <path d="M541.7,312.5c0-8.5,0-17,0-25.5c-12.4,0-24.8,0-37.2,0c0,8.5,0,17,0,25.5c-5.9,0-11.7,0-17.5,0c0-20.9,0-41.7,0-62.6c5.8,0,11.6,0,17.5,0c0.1,7.6,0,15.1,0,22.7c12.4,0,24.8,0,37.2,0c0-7.6,0-15.1,0-22.7c5.9,0,11.7,0,17.6,0c0,20.9,0,41.7,0,62.6C553.4,312.5,547.6,312.5,541.7,312.5z" />
    <path d="M425.6,312.5c-5.9,0-11.7,0-17.6,0c0-20.9,0-41.7,0-62.6c1-0.1,2,0,3.1-0.1c13.8,0,27.6,0,41.3,0c6.5-0.1,13.2,0.9,18.8,4.4c8.1,4.8,10.9,14.2,8.6,23c-2.6,11.3-14.6,15.2-25,14.9c-9.7,0-19.4,0-29.2,0C425.6,299,425.7,305.7,425.6,312.5z M425.6,279.2c8.5,0,17,0,25.5,0c7.3,0.1,14-0.1,13.1-9.5c-0.2-4.7-3.9-6.9-8.2-6.9c-3-0.2-6-0.3-9-0.2c-7.1,0.2-14.2,0.1-21.3,0.1C425.6,268.3,425.6,273.7,425.6,279.2z" />
    <path d="M588.9,249.9c5.8,0,11.6,0,17.4,0c0.1,0.4,0.2,61.9,0,62.7c-5.8,0-11.6,0-17.5,0C588.9,291.6,588.9,270.8,588.9,249.9z" />
    <path d="M582.2,298.1c0,4.8,0,9.6,0,14.4c-5.5,0-10.9,0-16.4,0c0-4.8,0-9.6,0-14.4C571.3,298.1,576.7,298.1,582.6,298.1z" />
  </g>
</svg>
