<?xml version="1.0" encoding="utf-8"?>
<svg xmlns="http://www.w3.org/2000/svg" viewBox="58 263 714 110">
  <g fill="#FFFFFF">
    <polyline points="
		152.8,303 152.8,263.4 177.2,263.4 177.2,370.6 152.9,370.6 152.9,324.3 82.6,324.3 82.6,370.5 58,370.5 58,263.4 82.5,263.4 
		82.5,303 152.8,303"/>
    <polyline points="
		193.1,263.4 302.9,263.4 302.9,283 217.8,283 217.8,283 217.8,283 217.8,305.1 290.6,305.1 290.6,324.7 217.7,324.7 217.7,351.1 
		217.7,351.1 217.7,351.1 302.8,351.1 302.8,370.5 193.1,370.5 193.1,263.4"/>
    <polyline points="
		350.1,370.6 317.2,370.6 317.1,370.6 316.9,370.5 316.6,370.5 316.6,263.4 341.1,263.4 341.1,350.4 392.6,350.4 389.7,354 
		376.6,370 376.3,370.2 375.9,370.5 375.1,370.6 350.1,370.6"/>
    <polyline points="
		392.1,370.6 392.7,369.9 393.5,368.8 400,360.9 478.3,264.7 479.4,263.8 480.1,263.4 480.8,263.3 504.7,263.2 510.4,263.2 
		510.8,263.3 511.1,263.4 510.8,263.8 510.3,264.6 424.9,369.5 424,370.2 423.5,370.5 423.1,370.6 398,370.6 392.1,370.6"/>
    <polyline points="
		618.3,370.6 608,370.6 603.4,370.6 591,370.7 589.2,370.4 587.9,369.2 562,337.3 557.2,331.4 556.2,330.3 555.7,329.7 552.4,333.6 
		546,341.6 541.5,347.1 523.5,369.2 522.2,370.4 520.4,370.7 501.6,370.6 495.3,370.6 493,370.6 519.7,337.5 535.9,317.4 
		526.7,305.8 521.3,299 518.6,295.5 510.8,285.7 510.7,285.5 510.3,285.1 510.1,284.6 510.1,284 510.5,283.4 521,270.5 524.6,266.1 
		533.6,277.1 555.7,304.6 558,301.7 570.9,285.7 575.2,280.4 587.8,264.8 589.3,263.5 591.2,263.2 608.5,263.2 615.9,263.2 
		617.3,263.3 618.2,263.3 575.3,317.4 589.3,334.7 618.3,370.6"/>
    <polyline points="
		709.5,352.8 690.3,352.8 690.3,346 719.5,346 719.5,370.7 714.1,370.7 713.5,368.1 712.7,363.6 712,364.1 710.9,365 708.5,366.8 
		706,368.3 703.3,369.6 700.5,370.6 696.6,371.6 692.5,372.1 688.5,372.2 684.4,371.9 680.4,371.1 676.5,370 673.8,368.8 
		671.2,367.4 668.7,365.8 666.4,363.9 663.8,361.1 661.7,357.9 660,354.5 658.9,351 658.3,347.4 658.3,343.8 658.8,340.1 
		659.8,336.6 661.3,333.3 663.4,330.1 666,327.2 669,324.7 672.1,322.7 675.4,321 679,319.8 684.5,318.7 690.1,318.4 695.7,318.9 
		701.1,320.3 704.6,321.7 707.8,323.5 710.9,325.7 713.6,328.2 715.9,331.2 717.6,334.3 718.6,337.5 716.8,337.5 709.7,337.4 
		709.6,337.4 709.5,337.3 709.2,337.2 708.9,336.7 706.9,333.8 704.5,331.3 701.9,329.4 699.1,328 696.1,327 692.9,326.5 
		689.5,326.2 686.1,326.4 682.1,327 678.2,328.3 674.7,330.4 671.7,333.2 669.4,336.6 667.8,340.4 667.2,344.5 667.5,348.6 
		668.7,352.5 670.7,356.1 673.5,359.1 676.9,361.4 680,362.8 683.3,363.8 686.5,364.4 689.7,364.6 692.9,364.3 696.1,363.6 
		699.3,362.4 702.4,360.9 704.6,359.4 706.5,357.5 708.1,355.3 709.5,352.8"/>
    <path d="
		M771.8,329.2l-1.9-1.2l-2.3-0.6l-5.4-0.4l-20,0l-4.7,0l-1.2,0.1l-0.5,0v19.1l0.6,0l1.2,0.1l5,0l18.6,0l6.4-0.4l2.5-0.6l2-1.3
		l1.5-1.9l0.7-2.2l0.2-3.4l-0.3-3.3l-0.8-2.2L771.8,329.2 M726.8,319.3l0.5,0l1.2-0.1l33.7,0l3.2,0.2l3.1,0.5l3.1,0.9l2.9,1.3
		l3.1,2.1l2.6,2.7l1.9,3.1l1.2,3.5l0.5,3.6l-0.3,3.7l-1.1,3.6l-1.9,3.3l-1.8,2.1l-2.2,1.7l-2.5,1.2l-3.9,1l-4.1,0.3l-19.5,0.1
		l-8.2,0h-2.6v16.5h-8.9V319.3"/>
  </g>
</svg>
