<?xml version="1.0" encoding="utf-8"?>
<!-- Generator: Adobe Illustrator 27.5.0, SVG Export Plug-In . SVG Version: 6.00 Build 0)  -->
<svg version="1.1" id="Слой_1" xmlns="http://www.w3.org/2000/svg" xmlns:xlink="http://www.w3.org/1999/xlink" x="0px" y="0px"
	 viewBox="0 0 728.3 246.7" style="enable-background:new 0 0 728.3 246.7;" xml:space="preserve">
<style type="text/css">
	.st0{fill:#FFFFFF;}
</style>
<g>
	<path d="M84.7,161.4c0-3.1,0-6,0-9.2c0.9,0,1.8-0.1,2.6-0.1c8.1,0,16.1,0,24.2,0c4.2,0,7.9-1.2,10.7-4.4c3.7-4.2,4.7-9,2.7-14.3
		c-2.1-5.4-6.3-8.3-12.1-8.7c-3.7-0.2-7.5,0-11.3-0.1c-2.2,0-4.5,0-6.7-0.3c-11.2-1.6-19.5-11.1-19.7-22.5
		c-0.2-11.2,8-21.2,19.1-23.1c1.3-0.2,2.7-0.3,4.1-0.3c8.5,0,16.9,0,25.4,0c0.6,0,1.2,0.1,2,0.1c0,3,0,5.9,0,9.1
		c-0.8,0-1.7,0.1-2.5,0.1c-8.2,0-16.3,0-24.5,0c-5.3,0-9.5,2.2-12.2,6.7c-5.3,8.7,0.6,20,10.7,20.6c4.9,0.3,9.9,0.1,14.9,0.1
		c7.4,0,13.6,2.9,18.1,8.7c5.8,7.4,6.9,15.6,3,24.1c-4,8.6-11,13.2-20.5,13.5c-8.9,0.2-17.9,0.1-26.9,0.1
		C85.6,161.5,85.3,161.4,84.7,161.4z"/>
	<path d="M150.2,161.2c0-3.1,0-6,0-9.2c0.8-0.1,1.6-0.1,2.3-0.1c5,0,9.9,0.1,14.9-0.1c3.3-0.1,6.7-0.5,9.9-1.3
		c7.2-1.8,12.1-6.3,14.8-13.2c1.7-4.2,2.3-8.6,2.6-13.1c0.4-5.7,0.2-11.4-1.2-16.9c-2.6-10.4-9.2-16.6-19.6-18.6
		c-3.1-0.6-6.3-0.8-9.5-0.9c-4.6-0.1-9.3,0-14.2,0c-0.2-3.1-0.1-6.1-0.1-9.2c0.9-0.1,1.6-0.1,2.3-0.1c4.7,0,9.4,0,14.2,0
		c5.6,0,11,0.8,16.3,2.6c10.4,3.6,17.2,10.7,20.7,21.1c2.6,7.8,3,15.8,2.5,23.9c-0.3,5.4-1.3,10.6-3.4,15.6c-3.5,8.3-9.6,14-18.2,17
		c-5.1,1.8-10.4,2.6-15.8,2.7c-5.8,0.1-11.5,0.1-17.3,0.1C151.1,161.4,150.8,161.3,150.2,161.2z"/>
	<path d="M232.3,78.5c11.3,27.5,22.5,55,33.9,82.7c-0.8,0.1-1.3,0.2-1.9,0.2c-2.7,0-5.4,0-8.2,0c-2.1,0-2.1,0-2.9-2
		c-5-12.8-9.9-25.6-14.8-38.5c-5-13-10.1-26.1-15.1-39.1c-0.4-1-0.8-2.1-1.2-3.3C225.6,78.5,228.8,78.5,232.3,78.5z"/>
	<path d="M316.7,108.9c-1.4,1.2-3.5,1.8-6.3,1.8c-2.6,0-4.8-0.6-6.4-1.7c-1.7-1.2-2.8-2.8-3.3-5h-3.4c0.4,2.1,1.2,3.9,2.4,5.3
		s2.7,2.5,4.5,3.2s3.9,1.1,6.2,1.1c2.3,0,4.4-0.4,6.1-1.1c1.8-0.7,3.2-1.8,4.2-3.3c1-1.5,1.5-3.2,1.5-5.3c0-1.8-0.3-3.2-0.9-4.3
		c-0.6-1.1-1.4-2-2.4-2.6c-1-0.7-2.1-1.2-3.3-1.5c-1.2-0.4-2.5-0.6-3.8-0.9c-1.3-0.2-2.6-0.4-3.8-0.7c-1.2-0.3-2.3-0.6-3.3-1
		c-1-0.4-1.8-1-2.4-1.9c-0.6-0.8-0.9-1.9-0.9-3.2c0-1.7,0.7-3.1,2-4.2c1.3-1,3.2-1.6,5.6-1.6c2.3,0,4.2,0.5,5.8,1.6
		c1.5,1.1,2.5,2.9,3,5.3h3.5c-0.4-2.3-1.1-4.1-2.3-5.6c-1.1-1.4-2.6-2.5-4.3-3.2s-3.6-1-5.7-1c-2.4,0-4.4,0.4-6,1.2
		c-1.6,0.8-2.9,1.9-3.7,3.2c-0.8,1.3-1.2,2.8-1.2,4.4c0,1.7,0.3,3.1,0.9,4.2c0.6,1.1,1.4,1.9,2.4,2.5c1,0.6,2.1,1.1,3.3,1.4
		c1.2,0.3,2.5,0.6,3.8,0.9c1.3,0.2,2.6,0.5,3.8,0.7c1.2,0.3,2.3,0.6,3.3,1.1c1,0.5,1.8,1.1,2.4,2c0.6,0.9,0.9,2,0.9,3.5
		C318.9,106.2,318.2,107.7,316.7,108.9z"/>
	<path d="M348.6,92.7c-0.9-2-2.1-3.5-3.7-4.6c-1.6-1.1-3.5-1.6-5.8-1.6c-2,0-3.7,0.5-5.2,1.6c-1.1,0.8-2,1.9-2.7,3.2V87h-3.1v36.7
		h3.1v-14.9c0.2,0.4,0.5,0.8,0.7,1.1c1.8,2.3,4.2,3.5,7.2,3.5c3.3,0,5.9-1.2,7.8-3.5c1.9-2.3,2.9-5.7,2.9-10.1
		C349.9,97.1,349.5,94.7,348.6,92.7z M344.7,108c-1.3,1.9-3.2,2.8-5.7,2.8c-2.5,0-4.4-0.9-5.7-2.8c-1.4-1.9-2-4.5-2-7.9
		c0-3.5,0.7-6.2,2-8c1.3-1.8,3.2-2.7,5.8-2.7c2.4,0,4.3,0.9,5.6,2.8c1.3,1.9,2,4.5,2,7.9C346.6,103.4,346,106.1,344.7,108z"/>
	<path d="M376.3,110.5c-0.1-1-0.2-2.2-0.2-3.6V96.5c0-2-0.4-3.8-1.1-5.3c-0.7-1.5-1.8-2.7-3.3-3.5c-1.5-0.8-3.3-1.2-5.5-1.2
		c-2.1,0-3.9,0.4-5.4,1.1c-1.5,0.7-2.7,1.7-3.5,3.1c-0.9,1.3-1.4,3-1.7,4.9h3.2c0.3-1.9,1-3.4,2.2-4.6c1.2-1.1,2.8-1.7,5-1.7
		c2.4,0,4.2,0.6,5.3,1.9c1.1,1.3,1.7,3.1,1.7,5.5v0.9c-2.6,0-4.9,0.1-6.8,0.3c-2,0.2-4,0.6-5.8,1.2c-1.9,0.6-3.3,1.5-4.2,2.7
		c-0.9,1.2-1.4,2.6-1.4,4.4c0,1.6,0.4,2.9,1.1,4c0.7,1.1,1.7,1.9,3.1,2.5c1.3,0.6,2.9,0.8,4.7,0.8c1.2,0,2.4-0.2,3.7-0.7
		c1.2-0.5,2.4-1.2,3.5-2.1c0.9-0.7,1.6-1.7,2.2-2.7c0,0.8,0,1.7,0.1,2.5c0.1,1,0.3,1.8,0.7,2.5h3.4
		C376.7,112.3,376.5,111.5,376.3,110.5z M368.5,109.5c-1.4,0.8-2.9,1.2-4.6,1.2c-1.8,0-3.2-0.4-4.3-1.2s-1.6-2-1.6-3.5
		c0-0.9,0.2-1.7,0.6-2.4c0.4-0.8,1.2-1.4,2.3-2c1.1-0.6,2.7-1,4.7-1.3c1.9-0.3,4.4-0.4,7.3-0.4v1.8c0,1.6-0.4,3.1-1.2,4.5
		C370.9,107.6,369.8,108.7,368.5,109.5z"/>
	<path d="M401.6,104.4c-0.5,2.1-1.4,3.7-2.7,4.8c-1.3,1.1-3,1.6-4.9,1.6c-2.6,0-4.7-0.9-6.1-2.8c-1.5-1.9-2.2-4.5-2.2-7.9
		c0-3.5,0.7-6.1,2.1-8c1.4-1.9,3.4-2.8,6.1-2.8c2,0,3.6,0.6,5,1.7c1.4,1.1,2.2,2.7,2.6,4.9h3.2c-0.3-2-0.9-3.7-1.9-5.1
		c-1-1.4-2.2-2.4-3.7-3.1c-1.5-0.7-3.2-1.1-5.1-1.1c-2.4,0-4.4,0.5-6.1,1.6c-1.7,1-3,2.6-3.9,4.6c-0.9,2-1.4,4.5-1.4,7.4
		c0,2.8,0.5,5.2,1.4,7.2c0.9,2,2.2,3.6,3.9,4.6c1.7,1.1,3.8,1.6,6.1,1.6c2.8,0,5.1-0.7,7.1-2.2c1.9-1.4,3.2-3.8,3.8-7H401.6z"/>
	<path d="M414.7,111.9c1.7,1.1,3.8,1.6,6.3,1.6c2.8,0,5.3-0.7,7.3-2.2c2-1.5,3.3-3.7,4.1-6.8H429c-0.5,2.1-1.5,3.6-2.9,4.7
		c-1.4,1-3.1,1.6-5.2,1.6c-2.7,0-4.8-0.9-6.2-2.8c-1.4-1.8-2.1-4.3-2.2-7.4h19.6v-0.9c0-2.7-0.5-5.1-1.4-7c-0.9-1.9-2.2-3.4-3.9-4.5
		c-1.7-1.1-3.7-1.6-6.1-1.6c-2.4,0-4.4,0.5-6.1,1.6c-1.7,1-3,2.6-4,4.6c-0.9,2-1.4,4.5-1.4,7.4c0,2.8,0.5,5.2,1.4,7.2
		C411.6,109.3,413,110.8,414.7,111.9z M420.8,89.3c2.6,0,4.6,0.9,6,2.8c1.2,1.5,1.9,3.5,2.1,6.1h-16.2c0.2-2.5,0.9-4.5,2-6
		C416.1,90.2,418.1,89.3,420.8,89.3z"/>
	<path d="M468,111c2.5-1.3,4.4-3.2,5.8-5.7c1.4-2.5,2.1-5.5,2.1-8.9c0-3.5-0.7-6.5-2.1-9c-1.4-2.5-3.3-4.4-5.8-5.7
		c-2.5-1.3-5.5-2-8.9-2h-6.9h-1H449V113h2.3h1h6.9C462.6,113,465.6,112.3,468,111z M452.3,82.3h6.9c2.8,0,5.2,0.6,7.2,1.7
		c2,1.1,3.5,2.7,4.6,4.8c1.1,2.1,1.6,4.6,1.6,7.6c0,2.9-0.5,5.4-1.6,7.5c-1.1,2.1-2.6,3.7-4.6,4.8c-2,1.1-4.4,1.7-7.2,1.7h-6.9V82.3
		z"/>
	<path d="M488.7,114.7c-0.7,1.5-1.2,2.8-1.7,3.7c-0.5,0.9-1,1.6-1.4,2c-0.5,0.4-1,0.7-1.5,0.8c-0.6,0.1-1.2,0.2-2.1,0.2h-1.1v2.4
		c0.2,0.1,0.5,0.1,0.9,0.2c0.4,0.1,0.7,0.1,1.1,0.1c1.1,0,2-0.1,2.8-0.3c0.8-0.2,1.4-0.6,2-1.2c0.6-0.6,1.2-1.4,1.7-2.4
		c0.6-1,1.2-2.3,1.8-3.9L503.3,87H500l-7.3,18.3l-1.3,3.6l-1.3-3.6L482.6,87h-3.5l10.6,25.2L488.7,114.7z"/>
	<path d="M523.8,87.6c-1.3-0.7-2.8-1.1-4.7-1.1c-1.9,0-3.5,0.4-5,1.3c-1.4,0.8-2.6,2.1-3.5,3.6V87h-3.2V113h3.2V97.5
		c0-1,0.2-2,0.5-2.9s0.8-1.9,1.5-2.7c0.6-0.8,1.4-1.4,2.4-1.9c0.9-0.5,2-0.7,3.2-0.7c1.5,0,2.7,0.3,3.6,0.9c0.9,0.6,1.6,1.4,2.1,2.5
		c0.5,1.1,0.7,2.3,0.7,3.7V113h3.1V95.6c0-2-0.3-3.6-1-5C526,89.3,525.1,88.3,523.8,87.6z"/>
	<path d="M555.4,106.9V96.5c0-2-0.4-3.8-1.1-5.3c-0.7-1.5-1.8-2.7-3.3-3.5c-1.5-0.8-3.3-1.2-5.5-1.2c-2.1,0-3.9,0.4-5.4,1.1
		c-1.5,0.7-2.7,1.7-3.5,3.1c-0.9,1.3-1.4,3-1.7,4.9h3.2c0.3-1.9,1-3.4,2.2-4.6c1.2-1.1,2.8-1.7,5-1.7c2.4,0,4.2,0.6,5.3,1.9
		c1.1,1.3,1.7,3.1,1.7,5.5v0.9c-2.6,0-4.9,0.1-6.8,0.3c-2,0.2-4,0.6-5.8,1.2c-1.9,0.6-3.3,1.5-4.2,2.7c-0.9,1.2-1.4,2.6-1.4,4.4
		c0,1.6,0.4,2.9,1.1,4c0.7,1.1,1.7,1.9,3.1,2.5s2.9,0.8,4.7,0.8c1.2,0,2.4-0.2,3.7-0.7c1.2-0.5,2.4-1.2,3.5-2.1
		c0.9-0.7,1.6-1.7,2.2-2.7c0,0.8,0,1.7,0.1,2.5c0.1,1,0.3,1.8,0.7,2.5h3.4c-0.4-0.7-0.6-1.5-0.8-2.5
		C555.4,109.5,555.4,108.3,555.4,106.9z M547.7,109.5c-1.4,0.8-2.9,1.2-4.6,1.2c-1.8,0-3.2-0.4-4.3-1.2c-1.1-0.8-1.6-2-1.6-3.5
		c0-0.9,0.2-1.7,0.6-2.4c0.4-0.8,1.2-1.4,2.3-2c1.1-0.6,2.7-1,4.7-1.3c1.9-0.3,4.4-0.4,7.3-0.4v1.8c0,1.6-0.4,3.1-1.2,4.5
		C550.2,107.6,549.1,108.7,547.7,109.5z"/>
	<path d="M593.9,87.6c-1.2-0.7-2.7-1.1-4.4-1.1s-3.3,0.4-4.7,1.3c-1.4,0.9-2.5,2.1-3.3,3.7c0,0.1-0.1,0.1-0.1,0.2
		c-0.1-0.4-0.2-0.7-0.4-1.1c-0.6-1.4-1.5-2.4-2.7-3.1c-1.2-0.7-2.6-1.1-4.3-1.1c-1.7,0-3.2,0.4-4.6,1.3c-1.3,0.8-2.3,2-3.1,3.5V87
		H563V113h3.2V97.5c0-1,0.2-2,0.5-2.9c0.3-1,0.8-1.9,1.3-2.7c0.6-0.8,1.3-1.4,2.2-1.9c0.8-0.5,1.8-0.7,2.9-0.7
		c1.3,0,2.4,0.3,3.2,0.9c0.8,0.6,1.4,1.4,1.8,2.5c0.4,1.1,0.6,2.3,0.6,3.7V113h3.2V97.5c0-1,0.2-2,0.5-2.9s0.8-1.9,1.3-2.7
		c0.6-0.8,1.3-1.4,2.2-1.9c0.8-0.5,1.8-0.7,2.9-0.7c1.3,0,2.4,0.3,3.2,0.9c0.8,0.6,1.4,1.4,1.8,2.5c0.4,1.1,0.6,2.3,0.6,3.7V113h3.2
		V95.6c0-2-0.3-3.6-1-5C596,89.3,595.1,88.3,593.9,87.6z"/>
	<rect x="605.1" y="87" width="3.2" height="25.9"/>
	<rect x="605.1" y="77.7" width="3.2" height="5.6"/>
	<path d="M631,109.2c-1.3,1.1-3,1.6-4.9,1.6c-2.6,0-4.7-0.9-6.1-2.8c-1.5-1.9-2.2-4.5-2.2-7.9c0-3.5,0.7-6.1,2.1-8
		c1.4-1.9,3.4-2.8,6.1-2.8c2,0,3.6,0.6,5,1.7c1.4,1.1,2.2,2.7,2.6,4.9h3.2c-0.3-2-0.9-3.7-1.9-5.1c-1-1.4-2.2-2.4-3.7-3.1
		c-1.5-0.7-3.2-1.1-5.1-1.1c-2.4,0-4.4,0.5-6.1,1.6c-1.7,1-3,2.6-3.9,4.6c-0.9,2-1.4,4.5-1.4,7.4c0,2.8,0.5,5.2,1.4,7.2
		c0.9,2,2.2,3.6,3.9,4.6c1.7,1.1,3.8,1.6,6.1,1.6c2.8,0,5.1-0.7,7.1-2.2c1.9-1.4,3.2-3.8,3.8-7h-3.2
		C633.2,106.5,632.3,108.1,631,109.2z"/>
	<path d="M660.9,102.1c-0.6-0.9-1.4-1.6-2.5-2c-1-0.5-2.1-0.8-3.3-1.1c-1.2-0.2-2.4-0.4-3.7-0.6c-1.2-0.2-2.3-0.4-3.4-0.7
		c-1-0.3-1.8-0.8-2.5-1.4c-0.6-0.6-0.9-1.5-0.9-2.7c0-1.3,0.5-2.4,1.5-3.2c1-0.8,2.5-1.3,4.3-1.3c2,0,3.6,0.5,4.8,1.5
		c1.2,1,2,2.6,2.4,4.9h3.2c-0.2-2.1-0.8-3.8-1.7-5.1c-0.9-1.3-2.1-2.3-3.6-2.9c-1.4-0.6-3.1-0.9-4.9-0.9c-2,0-3.7,0.3-5.1,1
		s-2.4,1.6-3,2.7c-0.7,1.1-1,2.3-1,3.7c0,1.5,0.3,2.7,0.9,3.6c0.6,0.9,1.4,1.6,2.4,2c1,0.5,2.1,0.8,3.3,1.1c1.2,0.2,2.4,0.5,3.6,0.6
		c1.2,0.2,2.3,0.4,3.3,0.7c1,0.3,1.8,0.8,2.4,1.4c0.6,0.6,0.9,1.5,0.9,2.7c0,1.4-0.6,2.6-1.7,3.6c-1.1,0.9-2.8,1.4-4.9,1.4
		c-2.2,0-4-0.6-5.4-1.7c-1.4-1.1-2.3-2.7-2.6-4.8h-3.2c0.5,3,1.7,5.3,3.7,6.7c2,1.5,4.4,2.2,7.4,2.2c1.9,0,3.6-0.3,5.1-0.9
		c1.5-0.6,2.7-1.5,3.5-2.7c0.8-1.2,1.3-2.6,1.3-4.2C661.8,104.2,661.5,103,660.9,102.1z"/>
	<path d="M309.7,127.6L296.4,161h3.3l3.5-8.7H320l3.5,8.7h3.5l-13.4-33.3H309.7z M304.3,149.6l6.4-16.1l0.9-2.6l0.9,2.6l6.4,16.1
		H304.3z"/>
	<path d="M343.1,134.5c-1.7,0-3.2,0.4-4.6,1.3c-1.4,0.8-2.5,2.1-3.4,3.8c0,0,0,0.1,0,0.1V135h-3.2V161h3.2v-14.9
		c0-1.1,0.2-2.2,0.5-3.2c0.3-1,0.8-1.9,1.4-2.7c0.7-0.8,1.5-1.4,2.4-1.9c1-0.5,2.1-0.7,3.5-0.7c0.5,0,0.9,0,1.4,0.1
		c0.5,0.1,0.8,0.2,1.2,0.3V135c-0.2-0.2-0.6-0.3-1-0.4C344,134.6,343.6,134.5,343.1,134.5z"/>
	<path d="M364.4,157.2c-1.3,1.1-3,1.6-4.9,1.6c-2.6,0-4.7-0.9-6.1-2.8c-1.5-1.9-2.2-4.5-2.2-7.9c0-3.5,0.7-6.1,2.1-8
		c1.4-1.9,3.4-2.8,6.1-2.8c2,0,3.6,0.6,5,1.7c1.4,1.1,2.2,2.7,2.6,4.9h3.2c-0.3-2-0.9-3.7-1.9-5.1c-1-1.4-2.2-2.4-3.7-3.1
		c-1.5-0.7-3.2-1.1-5.1-1.1c-2.4,0-4.4,0.5-6.1,1.6c-1.7,1-3,2.6-3.9,4.6c-0.9,2-1.4,4.5-1.4,7.4c0,2.8,0.5,5.2,1.4,7.2
		c0.9,2,2.2,3.6,3.9,4.6s3.8,1.6,6.1,1.6c2.8,0,5.1-0.7,7.1-2.2s3.2-3.8,3.8-7h-3.2C366.6,154.5,365.7,156.1,364.4,157.2z"/>
	<path d="M392.5,135.6c-1.3-0.7-2.8-1.1-4.7-1.1c-1.9,0-3.5,0.4-5,1.3c-1.4,0.8-2.6,2.1-3.5,3.6v-13.7h-3.2V161h3.2v-15.5
		c0-1,0.2-2,0.5-2.9s0.8-1.9,1.5-2.7c0.6-0.8,1.4-1.4,2.4-1.9c0.9-0.5,2-0.7,3.2-0.7c1.5,0,2.7,0.3,3.6,0.9c0.9,0.6,1.6,1.4,2.1,2.5
		c0.5,1.1,0.7,2.3,0.7,3.7V161h3.1v-17.3c0-2-0.3-3.6-1-5C394.8,137.3,393.8,136.3,392.5,135.6z"/>
	<rect x="404" y="135" width="3.2" height="25.9"/>
	<rect x="404" y="125.7" width="3.2" height="5.6"/>
	<path d="M418.4,129.1h-3.2v6h-3.9v2.5h3.9v16.3c0,2.6,0.5,4.5,1.6,5.7c1.1,1.2,2.8,1.8,5.1,1.8c0.5,0,0.9,0,1.3,0
		c0.4,0,0.7-0.1,0.9-0.2v-2.3h-0.8c-2,0-3.3-0.4-3.9-1.2c-0.7-0.8-1-2-1-3.7v-16.3h5.8V135h-5.8V129.1z"/>
	<path d="M444.2,157.2c-1.4,1-3.1,1.6-5.2,1.6c-2.7,0-4.8-0.9-6.2-2.8c-1.4-1.8-2.1-4.3-2.2-7.4h19.6v-0.9c0-2.7-0.5-5.1-1.4-7
		c-0.9-1.9-2.2-3.4-3.9-4.5c-1.7-1.1-3.7-1.6-6.1-1.6c-2.4,0-4.4,0.5-6.1,1.6c-1.7,1-3,2.6-4,4.6c-0.9,2-1.4,4.5-1.4,7.4
		c0,2.8,0.5,5.2,1.4,7.2c0.9,2,2.3,3.6,4,4.6c1.7,1.1,3.8,1.6,6.3,1.6c2.8,0,5.3-0.7,7.3-2.2c2-1.5,3.3-3.7,4.1-6.8H447
		C446.5,154.6,445.5,156.1,444.2,157.2z M438.7,137.3c2.6,0,4.6,0.9,6,2.8c1.2,1.5,1.9,3.5,2.1,6.1h-16.2c0.2-2.5,0.9-4.5,2-6
		C434.1,138.2,436.1,137.3,438.7,137.3z"/>
	<path d="M471.6,157.2c-1.3,1.1-3,1.6-4.9,1.6c-2.6,0-4.7-0.9-6.1-2.8c-1.5-1.9-2.2-4.5-2.2-7.9c0-3.5,0.7-6.1,2.1-8
		c1.4-1.9,3.4-2.8,6.1-2.8c2,0,3.6,0.6,5,1.7s2.2,2.7,2.6,4.9h3.2c-0.3-2-0.9-3.7-1.9-5.1c-1-1.4-2.2-2.4-3.7-3.1
		c-1.5-0.7-3.2-1.1-5.1-1.1c-2.4,0-4.4,0.5-6.1,1.6c-1.7,1-3,2.6-3.9,4.6c-0.9,2-1.4,4.5-1.4,7.4c0,2.8,0.5,5.2,1.4,7.2
		c0.9,2,2.2,3.6,3.9,4.6c1.7,1.1,3.8,1.6,6.1,1.6c2.8,0,5.1-0.7,7.1-2.2c1.9-1.4,3.2-3.8,3.8-7h-3.2
		C473.8,154.5,472.9,156.1,471.6,157.2z"/>
	<path d="M487,129.1h-3.2v6h-3.9v2.5h3.9v16.3c0,2.6,0.5,4.5,1.6,5.7c1.1,1.2,2.8,1.8,5.1,1.8c0.5,0,0.9,0,1.3,0
		c0.4,0,0.7-0.1,0.9-0.2v-2.3H492c-2,0-3.3-0.4-3.9-1.2c-0.7-0.8-1-2-1-3.7v-16.3h5.8V135H487V129.1z"/>
	<path d="M513,148c-1-0.5-2.1-0.8-3.3-1.1c-1.2-0.2-2.4-0.4-3.7-0.6c-1.2-0.2-2.3-0.4-3.4-0.7c-1-0.3-1.8-0.8-2.5-1.4
		c-0.6-0.6-0.9-1.5-0.9-2.7c0-1.3,0.5-2.4,1.5-3.2c1-0.8,2.5-1.3,4.3-1.3c2,0,3.6,0.5,4.8,1.5c1.2,1,2,2.6,2.4,4.9h3.2
		c-0.2-2.1-0.8-3.8-1.7-5.1c-0.9-1.3-2.1-2.3-3.6-2.9c-1.4-0.6-3.1-0.9-4.9-0.9c-2,0-3.7,0.3-5.1,1c-1.4,0.7-2.4,1.6-3,2.7
		c-0.7,1.1-1,2.3-1,3.7c0,1.5,0.3,2.7,0.9,3.6c0.6,0.9,1.4,1.6,2.4,2c1,0.5,2.1,0.8,3.3,1.1c1.2,0.2,2.4,0.5,3.6,0.6
		c1.2,0.2,2.3,0.4,3.3,0.7c1,0.3,1.8,0.8,2.4,1.4c0.6,0.6,0.9,1.5,0.9,2.7c0,1.4-0.6,2.6-1.7,3.6c-1.1,0.9-2.8,1.4-4.9,1.4
		c-2.2,0-4-0.6-5.4-1.7c-1.4-1.1-2.3-2.7-2.6-4.8h-3.2c0.5,3,1.7,5.3,3.7,6.7c2,1.5,4.4,2.2,7.4,2.2c1.9,0,3.6-0.3,5.1-0.9
		c1.5-0.6,2.7-1.5,3.5-2.7c0.8-1.2,1.3-2.6,1.3-4.2c0-1.5-0.3-2.8-0.9-3.7C514.8,149.2,514,148.5,513,148z"/>
</g>
</svg>
