<?xml version="1.0" encoding="utf-8"?>
<!-- Generator: Adobe Illustrator 27.5.0, SVG Export Plug-In . SVG Version: 6.00 Build 0)  -->
<svg version="1.1" id="Слой_1" xmlns="http://www.w3.org/2000/svg" xmlns:xlink="http://www.w3.org/1999/xlink" x="0px" y="0px"
	 viewBox="0 0 841.9 595.3" style="enable-background:new 0 0 841.9 595.3;" xml:space="preserve">
<style type="text/css">
	.st0{fill:#FFFFFF;}
</style>
<g>
	<path d="M589.2,319.9c0.1-0.3,0.2-0.5,0.3-0.6c5.3-7,10.6-14.1,15.8-21.1c4.3-5.7,8.5-11.4,12.8-17c5.4-7.2,10.9-14.4,16.3-21.6
		c2.1-2.8,4.2-5.5,6.3-8.4c0.6-0.9,1.4-1,2.3-1c11.7,0,23.4,0,35.1,0c1.6,0,3.2-0.1,4.7,0.1c0.6,0.1,1.4,0.5,1.8,1
		c6.3,8.3,12.5,16.6,18.8,24.9c7,9.3,14.1,18.6,21.1,28c3.6,4.8,7.3,9.7,10.9,14.6c0.2,0.3,0.3,0.8,0.4,1.2c-0.3,0.1-0.7,0.2-1,0.2
		c-7.6,0-15.2,0-22.8,0c-1.4,0-2.3-0.4-3.1-1.7c-3.4-4.9-6.9-9.8-10.5-14.6c-0.3-0.4-1-0.7-1.6-0.7c-19.3,0-38.7,0-58,0
		c-3.3,0-6.6,0-9.9,0c-1,0-1.6,0.3-2.2,1.1c-3.5,4.9-7.1,9.8-10.5,14.7c-0.6,0.9-1.3,1.2-2.4,1.2c-7.9-0.1-15.9-0.1-23.8-0.1
		C589.8,320,589.6,319.9,589.2,319.9z M634,295.7c0.9,0.1,1.5,0.1,2.2,0.1c17.5,0,35.1,0,52.6,0c0.7,0,1.3-0.2,2-0.3
		c-0.3-0.6-0.6-1.3-1-1.8c-5.5-7.4-11.1-14.8-16.7-22.2c-3-4-6-7.9-9-11.9c-1-1.3-1.9-1.2-2.9,0c-0.5,0.6-1.1,1.3-1.6,1.9
		c-7.4,9.8-14.8,19.6-22.2,29.5C636.3,292.4,635.3,293.9,634,295.7z"/>
	<path d="M180.8,340.9c0,11,0,21.9,0,32.9c0,4.5-0.6,8.8-3.2,12.6c-3.6,5.2-8.3,8.7-15,8.5c-2-0.1-2-0.1-1.3-1.8
		c2.4-6.1,3.9-12.3,4.6-18.8c0.8-7.5,0.2-14.9-1.5-22.1c-3-13-9.7-23.9-19.2-33.2c-4.9-4.8-10.4-8.6-16.5-11.8
		c-4.8-2.5-10-4.3-15.3-5.6c-6.7-1.6-13.4-2.2-20.2-1.6c-4.5,0.4-9,1.4-13.5,2.4c-2.7,0.6-5.2,1.7-7.8,2.5c-1.3,0.4-1.6,0.3-1.5-1.1
		c0.3-5.3,2.4-9.9,6.3-13.5c3.9-3.6,8.5-5.2,13.8-5.2c23.5,0,47-0.1,70.5,0c10.9,0,19.6,8.9,19.7,19.8
		C180.8,316.9,180.8,328.9,180.8,340.9C180.8,340.9,180.8,340.9,180.8,340.9z"/>
	<path d="M290.8,265.4c-0.2,1.6-0.1,3.2-0.5,4.7c-1.8,6.4-5.4,11.5-11.8,14c-2,0.8-4.3,1.3-6.4,1.3c-24.3,0.1-48.5,0.2-72.8,0
		c-7.1-0.1-12.6-3.9-16.2-10c-1.9-3.3-2.5-6.9-2.5-10.6c0.1-23.3,0-46.5,0-69.8c0-7.9,3.7-13.7,10.5-17.6c2.4-1.3,5-2,7.8-2
		c0.5,0,1,0.1,1.5,0.1c-10,28.1-6.6,53.8,14.8,75.3C236.8,272.2,262.5,275.1,290.8,265.4z"/>
	<path d="M319.8,250.2c1.5,0,2.8,0,4,0c7.3,0,14.6,0,22,0c1.1,0,1.7,0.4,2.3,1.3c2.9,4,5.9,7.9,8.8,11.8c4.5,6,9.1,12.1,13.6,18.1
		c7.2,9.5,14.4,18.9,21.6,28.4c0.4,0.5,0.7,1,1.1,1.5c0.9,1.1,1.9,1.1,2.8-0.1c3.4-4.5,6.8-9,10.1-13.4
		c8.1-10.7,16.3-21.4,24.4-32.2c3.6-4.8,7.1-9.6,10.7-14.4c0.3-0.4,0.9-0.6,1.4-0.8c0.2-0.1,0.5-0.1,0.7-0.1c7.7,0,15.3,0,23,0
		c0.8,0,1.7,0,2.8,0c-0.4,0.7-0.7,1.2-1,1.7c-8.5,11.3-17,22.5-25.5,33.8c-8.4,11.1-16.8,22.3-25.2,33.4c-0.5,0.7-1,0.9-1.9,0.9
		c-13.9,0-27.9,0-41.8,0c-1,0-1.7-0.3-2.3-1.1c-8.8-11.8-17.6-23.6-26.5-35.3c-5.8-7.7-11.7-15.4-17.6-23.1c-2.3-3-4.5-6.1-6.8-9.1
		C320.3,251.2,320.2,250.8,319.8,250.2z"/>
	<path d="M523.1,320.1c0-0.9,0-1.7,0-2.6c0-19.2,0-38.5,0-57.7c0-0.4,0.1-0.9,0-1.2c-0.1-0.3-0.5-0.8-0.8-0.8
		c-12.4-0.1-24.9-0.1-37.3-0.1c-3.9,0-7.7,0-11.9,0c0-2.4,0-4.6,0.1-6.8c0-0.3,0.7-0.7,1.1-0.7c5.9-0.1,11.9-0.1,17.8-0.1
		c34.4,0,68.8,0,103.2,0c1.1,0,2.2,0.1,3.4,0.1c0.8,0,1.1,0.2,1.1,1.1c-0.1,1.8,0,3.7,0,5.5c0,0.7-0.3,0.9-1,0.9
		c-15.2,0-30.4,0-45.6,0c-3.4,0-3.4,0-3.4,3.4c0,19.3,0,38.5,0,57.8c0,0.8-0.3,1.1-1.1,1.1C540.2,320.1,531.8,320.1,523.1,320.1z"/>
	<path d="M519,353.7c0.3-2,0.3-2,2.4-2c1.7,0,1.7,0,1.7,1.7c-0.1,4.4-0.1,8.9-0.2,13.3c0,0.9-0.1,1.7-0.3,2.6
		c-0.7,3.7-3.5,6.1-7.5,6.4c-1.3,0.1-2.6,0-3.9,0c-2.1,0.1-3.6-1.2-5.4-2c-0.2-0.1-0.4-0.7-0.3-1c0.2-0.7,0.5-1.4,1-2
		c0.1-0.2,0.8-0.2,1.1,0c2.5,1.5,5.2,1.8,7.9,1.3c2.4-0.4,3.9-3.1,3-5.6c-2.5,2.1-5.3,2.1-8.2,1.4c-2-0.5-3.5-1.6-4.7-3.3
		c-2.2-3.1-1.9-7.7,0.6-10.4C509.4,350.8,514,350.6,519,353.7z M513.5,354.9c-3.3,0-5.3,1.9-5.3,4.9c0,2.1,2,5.1,5.4,5
		c3.2-0.1,5.4-2,5.3-5C518.9,356.5,517.1,354.9,513.5,354.9z"/>
	<path d="M377.2,353.8c0.3-2.3,0.3-2.3,2.6-2.2c1.1,0,1.5,0.4,1.5,1.6c-0.1,4.6-0.1,9.3-0.2,13.9c-0.1,5.3-3.3,8.5-8.7,8.5
		c-1.6,0-3.3,0-4.8-0.3c-1.3-0.3-2.5-1.2-3.8-1.8c-0.2-0.1-0.3-0.6-0.2-0.7c0.4-0.9,0.8-1.7,1.3-2.6c2.6,1.9,5.5,2.2,8.4,1.8
		c2.7-0.3,4.4-3.1,3.5-5.7c-2.7,2.2-5.7,2.2-8.8,1.4c-1.9-0.5-3.4-1.9-4.5-3.6c-2-3.2-1.4-7.7,1.2-10.2
		C368.3,350.6,372.6,350.5,377.2,353.8z M377.2,359.7c-0.1-3.2-2-5-5.3-5c-3.4,0-5.4,2-5.3,5.2c0.1,3,2.3,5,5.6,4.8
		C375.1,364.7,377.2,362.9,377.2,359.7z"/>
	<path d="M336.3,346.2c0.1,4.4,0.6,3.5-3.1,3.6c-2.7,0.1-5.5,0-8.2,0c-0.8,0-1.2,0.2-1.1,1.1c0.1,1.2,0,2.5,0,3.7
		c-0.1,0.9,0.3,1.1,1.1,1.1c3.2,0,6.5,0,9.9,0c0,1,0.1,1.9,0,2.7c0,0.2-0.5,0.6-0.8,0.6c-3,0-6,0-9,0c-0.9,0-1.2,0.3-1.2,1.2
		c0,1.5,0,2.9-0.1,4.4c0,0.7,0.1,1,1,1c3.9,0,7.9,0,12,0c0,0.9,0,1.6,0,2.4c0,0.8-0.3,1-1,1c-4.6,0-9.1,0-13.7,0
		c-0.8,0-1.6,0.1-2.5,0.1c0-0.4,0-0.8,0-1.2c0-6.8,0-13.7,0-20.5c0-1,0.3-1.3,1.3-1.3c5,0,10.1,0,15.1,0
		C335.9,346.1,336.1,346.1,336.3,346.2z"/>
	<path d="M442.4,361.7c-0.3,1.4,0.6,2.6,2.5,3.7c1.9,1,5.5,0.3,7.6-1.6c0.6,0.8,1.2,1.5,1.6,2.3c0.2,0.3-0.1,1-0.4,1.3
		c-2.9,2.1-6.1,2.5-9.4,1.5c-3.3-1-5.6-3.2-6.2-6.8c-0.8-4.7,1.7-8.9,5.9-10.2c4.6-1.4,9.1,0.5,11,4.8c0.5,1.3,0.5,2.8,0.7,4.2
		c0,0.3-0.6,0.8-0.9,0.8C450.7,361.8,446.6,361.7,442.4,361.7z M441.9,358.6c0.4,0.1,0.5,0.2,0.7,0.2c2.9,0,5.7,0,8.6,0
		c1.1,0,0.7-0.7,0.5-1.2c-0.8-1.8-2.2-2.9-4.2-3.1c-1.9-0.2-3.5,0.5-4.7,2C442.4,357.2,442.2,357.9,441.9,358.6z"/>
	<path d="M432,363.9c0.5,0.6,0.9,1.1,1.3,1.5c0.9,0.8,0.7,1.4-0.2,2c-2.4,1.6-4.9,2.4-7.8,1.6c-1.5-0.4-3.2-0.9-4.4-1.8
		c-3.1-2.2-4.2-6.8-2.7-10.6c1.3-3.4,5.1-5.5,9-5.2c4.6,0.3,8.1,3.6,8.3,8.9c0,1-0.3,1.4-1.4,1.4c-3.8-0.1-7.6-0.1-11.3-0.1
		c-1,0-1.1,0.5-0.8,1.2c0.7,1.7,2,2.7,3.8,3C428,366,430.2,365.7,432,363.9z M421.6,358.8c3.3,0,6.6,0,9.8,0c-0.4-2.7-2.3-4.2-5-4.2
		C423.8,354.7,421.8,356.3,421.6,358.8z"/>
	<path d="M396.2,351.6c1.1,0,2.1,0,3.1,0c0.3,0,0.5,0.4,0.7,0.7c0.2,0.3,0.2,0.7,0.3,1.2c0.8-0.6,1.3-1.2,2-1.4c5.2-2,11,0,11.1,6.8
		c0.1,3,0,6,0,9c0,1-0.3,1.3-1.2,1.2c-0.9-0.1-1.8,0-3,0c0-1.3,0-2.4,0-3.6c0-2.2,0.1-4.5,0-6.7c-0.1-2-1.3-3.4-2.9-3.7
		c-2.6-0.4-4.8,0.5-5.6,2.4c-0.3,0.9-0.5,1.9-0.5,2.8c-0.1,2.9,0,5.7,0,8.7c-1.4,0-2.6,0-4,0C396.2,363.2,396.2,357.5,396.2,351.6z"
		/>
	<path d="M345,353.7c0.6-0.3,0.8-0.4,1-0.5c2-2.1,4.5-2.1,7.1-1.6c3,0.5,5.2,3,5.3,6.1c0.1,3.5,0.1,7.1,0,10.6
		c0,0.2-0.5,0.7-0.7,0.7c-1,0.1-2.1,0-3.3,0c0-0.8,0-1.6,0-2.4c-0.1-2.8-0.1-5.6-0.2-8.5c-0.1-1.6-0.9-2.7-2.5-3
		c-1.9-0.4-4-0.5-5.2,1.4c-0.7,1.2-1.1,2.7-1.2,4.1c-0.2,2.4-0.1,4.8-0.1,7.2c0,1-0.3,1.3-1.3,1.2c-2.7-0.1-2.7-0.1-2.7-2.7
		c0-4.5,0-9,0-13.4c0-1.1,0.4-1.4,1.4-1.3c0.1,0,0.2,0,0.2,0C344.1,351.5,345.5,351.4,345,353.7z"/>
	<path d="M500,369c-1.2,0-2.5,0-3.9,0c0-1.3,0-2.5,0-3.7c0-2.2,0.1-4.3-0.1-6.5c-0.3-3.5-3.3-4.9-6.5-3.3c-2.1,1.1-2.5,3-2.6,5
		c-0.1,2.4-0.1,4.7-0.1,7.1c0,1.1-0.2,1.5-1.4,1.5c-2.6-0.1-2.6,0-2.6-2.6c0-4.5,0-9.1,0-13.6c0-1.1,0.4-1.5,1.5-1.3
		c0.7,0.1,1.4,0.1,2.2,0.1c0.1,0.6,0.2,1.3,0.3,2.3c1.5-1.8,3.2-2.3,5.2-2.5c4.3-0.5,7.7,2.1,8,6.5c0.2,3.6,0.1,7.1,0.1,10.7
		C500.1,368.7,500.1,368.8,500,369z"/>
	<path d="M463.8,354.1c1.3-1.8,3-2.4,4.8-2.7c0.9-0.1,1.2,0.2,1.2,0.9c0,0.4,0,0.8,0,1.2c0,1.6-0.1,1.6-1.7,1.7
		c-2.4,0-4.1,1.4-4.3,3.8c-0.2,2.8-0.2,5.7-0.1,8.6c0,1-0.3,1.4-1.4,1.3c-0.8-0.1-1.6,0-2.6,0c0-1.2,0-2.3,0-3.5
		c0-4.3-0.1-8.6-0.1-12.9c0-0.7,0.2-1.1,1-1c0.2,0,0.5,0,0.7,0C463.5,351.7,463.5,351.7,463.8,354.1z"/>
	<path d="M215.6,310.3c0.2,5.1-4.2,9.6-9.4,9.8c-5.7,0.2-10.3-3.9-10.4-9.6c-0.1-5.3,4-10,9.9-10.3
		C209.7,299.9,215.7,303.6,215.6,310.3z M205.4,318.3c5.4,0.2,8.6-3.6,8.7-8.2c0.2-4.5-3.7-8.3-8.3-8.4c-4.6-0.1-8.4,3.5-8.5,8.1
		C197.3,314,200.4,318.6,205.4,318.3z"/>
	<path d="M390.7,360.4c0,2.6,0,5.1,0,7.7c0,0.8-0.2,1.1-1,0.9c-0.1,0-0.2,0-0.4,0c-0.9-0.1-2.1,0.1-2.6-0.4
		c-0.5-0.5-0.2-1.7-0.2-2.6c0-4.4,0-8.9,0-13.3c0-0.9,0.2-1.3,1.2-1.1c0.9,0.2,2.2-0.1,2.7,0.4c0.5,0.5,0.2,1.8,0.2,2.7
		C390.8,356.6,390.8,358.5,390.7,360.4C390.7,360.4,390.7,360.4,390.7,360.4z"/>
	<path d="M477.5,360.4c0,2.5,0,5,0,7.5c0,0.8-0.3,1.2-1.2,1.1c-2.9-0.1-2.8-0.1-2.8-2.9c0-4.3,0-8.6-0.1-13c0-1.5,0.1-1.6,1.6-1.6
		c2.9,0.1,2.3-0.1,2.4,2.5C477.5,356.2,477.5,358.3,477.5,360.4C477.5,360.4,477.5,360.4,477.5,360.4z"/>
	<path d="M388.7,343.8c1.4,0,2.5,1,2.5,2.4c0,1.2-1.1,2.3-2.4,2.3c-1.6,0-2.6-0.9-2.6-2.3C386.2,344.7,387.2,343.8,388.7,343.8z"/>
	<path d="M475.5,343.8c1.4,0,2.5,1,2.5,2.4c0,1.1-1.2,2.3-2.5,2.3c-1.3,0-2.5-1.1-2.5-2.3C472.9,344.9,474,343.8,475.5,343.8z"/>
	<path class="st0" d="M634,295.7c1.3-1.7,2.3-3.2,3.4-4.7c7.4-9.8,14.8-19.6,22.2-29.5c0.5-0.7,1-1.3,1.6-1.9c1-1.2,2-1.3,2.9,0
		c3,4,6,7.9,9,11.9c5.6,7.4,11.1,14.8,16.7,22.2c0.4,0.5,0.6,1.2,1,1.8c-0.7,0.1-1.3,0.3-2,0.3c-17.5,0-35.1,0-52.6,0
		C635.5,295.8,634.9,295.7,634,295.7z"/>
	<path class="st0" d="M513.5,354.9c3.6,0,5.4,1.6,5.4,5c0,2.9-2.1,4.9-5.3,5c-3.4,0.1-5.4-2.9-5.4-5
		C508.2,356.8,510.2,354.9,513.5,354.9z"/>
	<path class="st0" d="M377.2,359.7c0.1,3.2-2,4.9-5.1,5.1c-3.3,0.2-5.5-1.8-5.6-4.8c-0.1-3.2,1.9-5.2,5.3-5.2
		C375.2,354.7,377.1,356.5,377.2,359.7z"/>
	<path class="st0" d="M441.9,358.6c0.3-0.7,0.5-1.4,0.9-2c1.2-1.5,2.8-2.2,4.7-2c2,0.2,3.4,1.3,4.2,3.1c0.2,0.5,0.5,1.2-0.5,1.2
		c-2.9,0-5.7,0-8.6,0C442.4,358.9,442.3,358.8,441.9,358.6z"/>
	<path class="st0" d="M421.6,358.8c0.2-2.4,2.2-4.1,4.8-4.2c2.7-0.1,4.6,1.4,5,4.2C428.2,358.8,424.9,358.8,421.6,358.8z"/>
	<path class="st0" d="M205.4,318.3c-4.9,0.2-8.1-4.3-8-8.5c0.1-4.6,3.9-8.2,8.5-8.1c4.6,0.1,8.5,3.9,8.3,8.4
		C213.9,314.8,210.8,318.5,205.4,318.3z M208.7,314.9c0.2-0.1,0.3-0.2,0.5-0.3c-0.2-0.5-0.3-1.2-0.6-1.6c-0.6-0.8-0.7-1.5,0.2-2.3
		c0.9-0.9,1-2.1,0.5-3.4c-0.5-1.2-1.4-1.8-2.7-1.9c-1.3-0.1-2.6-0.1-3.9-0.1c-0.2,0-0.7,0.6-0.7,0.9c0,2.4,0,4.8,0,7.2
		c0,0.4,0.2,0.9,0.3,1.4c1.6-0.6,0.9-2.1,1.3-2.9c1.6-0.3,2.8-0.2,3.5,1.5C207.4,313.9,208.1,314.3,208.7,314.9z"/>
	<path d="M208.7,314.9c-0.5-0.5-1.2-0.9-1.5-1.5c-0.7-1.7-1.9-1.8-3.5-1.5c-0.4,0.9,0.3,2.3-1.3,2.9c-0.1-0.5-0.3-1-0.3-1.4
		c0-2.4-0.1-4.8,0-7.2c0-0.3,0.4-0.8,0.7-0.9c1.3,0,2.6,0,3.9,0.1c1.3,0.1,2.2,0.7,2.7,1.9c0.5,1.2,0.4,2.4-0.5,3.4
		c-0.8,0.8-0.7,1.4-0.2,2.3c0.3,0.5,0.4,1.1,0.6,1.6C209,314.6,208.8,314.7,208.7,314.9z M203.5,310.3c1.1,0,2,0.1,2.9,0
		c0.9-0.1,1.5-0.7,1.4-1.7c-0.1-0.6-0.5-1.4-0.9-1.5c-1-0.3-2.1-0.2-3.1-0.2c-0.1,0-0.2,0.3-0.2,0.5
		C203.5,308.3,203.5,309.3,203.5,310.3z"/>
	<path class="st0" d="M203.5,310.3c0-1,0-2,0-3c0-0.2,0.1-0.5,0.2-0.5c1.1,0,2.2-0.1,3.1,0.2c0.4,0.1,0.8,1,0.9,1.5
		c0.2,1-0.4,1.6-1.4,1.7C205.5,310.4,204.6,310.3,203.5,310.3z"/>
</g>
<g>
</g>
<g>
</g>
<g>
</g>
<g>
</g>
<g>
</g>
<g>
</g>
</svg>
