<?xml version="1.0" encoding="utf-8"?>
<!-- Generator: Adobe Illustrator 27.5.0, SVG Export Plug-In . SVG Version: 6.00 Build 0)  -->
<svg version="1.1" xmlns="http://www.w3.org/2000/svg" xmlns:xlink="http://www.w3.org/1999/xlink" x="0px" y="0px"
	 viewBox="0 0 595.2 841.9" style="enable-background:new 0 0 595.2 841.9;" xml:space="preserve">
<style type="text/css">
	.st0{clip-path:url(#SVGID_00000075876241290813155260000007956717020774872498_);}
	.st1{clip-path:url(#SVGID_00000072271709427858868720000014342760266731924155_);}
	.st2{clip-path:url(#SVGID_00000047031350745044758430000005941350053834219651_);}
	.st3{clip-path:url(#SVGID_00000049924699499499361780000003646960145826143150_);}
	.st4{clip-path:url(#SVGID_00000116949828773078724380000005941110086638904719_);}
	.st5{clip-path:url(#SVGID_00000162353164892047460090000010872377692906307973_);}
	.st6{clip-path:url(#SVGID_00000116947353186607515960000005828472105429977499_);}
	.st7{fill:#FFFFFF;}
</style>
<g id="Слой_1">
	<defs>
		<path id="SVGID_1_" d="M107.2,436.7h12.2v2.4c0,1.8,0.6,2.4,2.3,2.4h33.1c1.7,0,2.3-0.6,2.3-2.4v-2.3c0-1.8-0.6-2.4-2.3-2.5
			l-38.1-1.8c-5.9-0.2-8.8-3.3-8.8-9.2v-4.8c0-5.9,3.3-9.3,8.8-9.3H160c5.5,0,8.8,3.5,8.8,9.4v3.5h-12.2v-1.9c0-1.8-0.6-2.4-2.3-2.4
			h-31.4c-1.7,0-2.3,0.6-2.3,2.4v0.8c0,1.8,0.6,2.5,2.3,2.6l38.1,1.9c5.9,0.2,8.8,3.3,8.8,9.2v6.2c0,5.9-3.3,9.3-8.8,9.3h-45
			c-5.5,0-8.8-3.5-8.8-9.4V436.7z"/>
	</defs>
	<defs>
		<path id="SVGID_00000178203752192560781210000017655635036619013779_" d="M229.1,409.1c8.9,0,12.6,3.9,12.6,13.4v14.2
			c0,9.6-3.7,13.4-12.6,13.4H204c-3.4,0-6-0.3-7.8-0.8c-1.8-0.5-3.8-1.7-5.9-3.5v16.7h-12.6v-53.3h10.6l1.1,5.2
			c2.5-2.2,4.6-3.5,6.5-4.2c1.8-0.6,4.6-0.9,8.2-0.9H229.1z"/>
	</defs>
	<defs>
		<path id="SVGID_00000072962236003881889250000007843985133761424050_" d="M229,424.4c0-4.1-1.2-5.3-5-5.3h-23.9
			c-3.3,0-5.9,0.7-7.6,2.2l-2.3,1.8v12.9l2.3,1.8c1.8,1.5,4.3,2.2,7.6,2.2H224c3.9,0,5-1.2,5-5.3V424.4z"/>
	</defs>
	<defs>
		<rect id="SVGID_00000070803428699699939560000010951317398828486057_" x="249.9" y="396.1" width="12.9" height="54"/>
	</defs>
	<defs>
		<path id="SVGID_00000163074739144815018250000005413242167054441908_" d="M321.2,409.1c8.9,0,12.6,3.9,12.6,13.4v27.6h-10.6
			l-1.1-4.9c-2.3,2.2-4.3,3.5-6,4.1c-1.7,0.5-4.2,0.8-7.8,0.8h-28.8c-6.1,0-9.2-3.2-9.2-9.7v-4.5c0-6.5,3.1-9.7,9.2-9.7h41.6v-2.9
			c0-4.1-1.2-5.3-5.1-5.3h-27.6c-3,0-4.1,1.2-4.1,4.3v1.2h-12.2v-2.8c0-8,3.4-11.6,10.9-11.6H321.2z"/>
	</defs>
	<defs>
		<path id="SVGID_00000162315710351889993760000007866008413059210937_" d="M312.3,441.8c2.6,0,4.7-0.7,6.4-2l2.5-2.1v-4.6h-34.4
			c-2.7,0-3.6,1-3.6,3.9v1c0,3,0.9,3.9,3.6,3.9H312.3z"/>
	</defs>
	<defs>
		<polygon id="SVGID_00000096051881739108888760000013716872275403551915_" points="390.2,409.1 405.2,409.1 375.6,450.1 365,450.1 
			335.3,409.1 350.9,409.1 370.5,437.8 		"/>
	</defs>
	<use xlink:href="#SVGID_1_"  style="overflow:visible;fill:#FFFFFF;"/>
	<use xlink:href="#SVGID_00000178203752192560781210000017655635036619013779_"  style="overflow:visible;fill:#FFFFFF;"/>
	<use xlink:href="#SVGID_00000072962236003881889250000007843985133761424050_"  style="overflow:visible;fill:#FFFFFF;"/>
	<use xlink:href="#SVGID_00000070803428699699939560000010951317398828486057_"  style="overflow:visible;fill:#FFFFFF;"/>
	<use xlink:href="#SVGID_00000163074739144815018250000005413242167054441908_"  style="overflow:visible;fill:#FFFFFF;"/>
	<use xlink:href="#SVGID_00000162315710351889993760000007866008413059210937_"  style="overflow:visible;fill:#FFFFFF;"/>
	<use xlink:href="#SVGID_00000096051881739108888760000013716872275403551915_"  style="overflow:visible;fill:#FFFFFF;"/>
	<clipPath id="SVGID_00000156577447507443439500000013864867423630313139_">
		<use xlink:href="#SVGID_1_"  style="overflow:visible;"/>
	</clipPath>
	
		<clipPath id="SVGID_00000102516528216381031190000004404569742522393791_" style="clip-path:url(#SVGID_00000156577447507443439500000013864867423630313139_);">
		<use xlink:href="#SVGID_00000178203752192560781210000017655635036619013779_"  style="overflow:visible;"/>
	</clipPath>
	
		<clipPath id="SVGID_00000024686689250061080870000017649046650206182275_" style="clip-path:url(#SVGID_00000102516528216381031190000004404569742522393791_);">
		<use xlink:href="#SVGID_00000072962236003881889250000007843985133761424050_"  style="overflow:visible;"/>
	</clipPath>
	
		<clipPath id="SVGID_00000138549937878467774080000014212354568385785219_" style="clip-path:url(#SVGID_00000024686689250061080870000017649046650206182275_);">
		<use xlink:href="#SVGID_00000070803428699699939560000010951317398828486057_"  style="overflow:visible;"/>
	</clipPath>
	
		<clipPath id="SVGID_00000153678061874810795640000014606826574328312746_" style="clip-path:url(#SVGID_00000138549937878467774080000014212354568385785219_);">
		<use xlink:href="#SVGID_00000163074739144815018250000005413242167054441908_"  style="overflow:visible;"/>
	</clipPath>
	
		<clipPath id="SVGID_00000158747829561936282440000008342288849202212536_" style="clip-path:url(#SVGID_00000153678061874810795640000014606826574328312746_);">
		<use xlink:href="#SVGID_00000162315710351889993760000007866008413059210937_"  style="overflow:visible;"/>
	</clipPath>
	
		<clipPath id="SVGID_00000116206702424884243920000016198636351956188317_" style="clip-path:url(#SVGID_00000158747829561936282440000008342288849202212536_);">
		<use xlink:href="#SVGID_00000096051881739108888760000013716872275403551915_"  style="overflow:visible;"/>
	</clipPath>
	<g style="clip-path:url(#SVGID_00000116206702424884243920000016198636351956188317_);">
		<path class="st7" d="M482.8,408.2c0,3.3-1,5.8-3.5,8c-6.3,5.5-12.5,11.2-18.8,16.8c-2.6,2.3-4,4.8-3.8,8.3c0.2,4.2,0.1,8.5,0,12.7
			c0,0.8-0.1,1.5-0.1,2.6c-0.9-0.6-1.6-1-2.2-1.4c-3.3-2.5-6.7-5-9.9-7.5c-2.9-2.2-4.4-5.2-4.4-8.9c0.1-13.3,0.1-26.5,0.1-39.8
			c0-2.9,0.9-5.3,3.1-7.3c2.9-2.6,6-5.1,8.9-7.6c5.8-4.9,11.6-9.8,17.5-14.6c2.2-1.8,4.7-2.7,7.6-1.9c3.2,0.9,5.3,3.5,5.5,6.8
			c0,0.5,0,1,0,1.4C482.7,386.6,482.7,397.4,482.8,408.2z"/>
	</g>
	<g style="clip-path:url(#SVGID_00000116206702424884243920000016198636351956188317_);">
		<path class="st7" d="M482.8,408.2c0,3.3-1,5.8-3.5,8c-6.3,5.5-12.5,11.2-18.8,16.8c-2.6,2.3-4,4.8-3.8,8.3c0.2,4.2,0.1,8.5,0,12.7
			c0,0.8-0.1,1.5-0.1,2.6c-0.9-0.6-1.6-1-2.2-1.4c-3.3-2.5-6.7-5-9.9-7.5c-2.9-2.2-4.4-5.2-4.4-8.9c0.1-13.3,0.1-26.5,0.1-39.8
			c0-2.9,0.9-5.3,3.1-7.3c2.9-2.6,6-5.1,8.9-7.6c5.8-4.9,11.6-9.8,17.5-14.6c2.2-1.8,4.7-2.7,7.6-1.9c3.2,0.9,5.3,3.5,5.5,6.8
			c0,0.5,0,1,0,1.4C482.7,386.6,482.7,397.4,482.8,408.2z"/>
	</g>
</g>
<g id="Слой_1__x28_копия_x29_">
	<g>
		<path class="st7" d="M482.8,408.2c0,3.3-1,5.8-3.5,8c-6.3,5.5-12.5,11.2-18.8,16.8c-2.6,2.3-4,4.8-3.8,8.3c0.2,4.2,0.1,8.5,0,12.7
			c0,0.8-0.1,1.5-0.1,2.6c-0.9-0.6-1.6-1-2.2-1.4c-3.3-2.5-6.7-5-9.9-7.5c-2.9-2.2-4.4-5.2-4.4-8.9c0.1-13.3,0.1-26.5,0.1-39.8
			c0-2.9,0.9-5.3,3.1-7.3c2.9-2.6,6-5.1,8.9-7.6c5.8-4.9,11.6-9.8,17.5-14.6c2.2-1.8,4.7-2.7,7.6-1.9c3.2,0.9,5.3,3.5,5.5,6.8
			c0,0.5,0,1,0,1.4C482.7,386.6,482.7,397.4,482.8,408.2z"/>
	</g>
	<g>
		<path class="st7" d="M502,413.5c0,12.6-0.1,25.1-0.1,37.7c0,3.2-1,6-3.4,8.1c-3.7,3.3-7.5,6.5-11.3,9.7c-4.4,3.7-8.8,7.4-13.3,11
			c-0.9,0.8-1.9,1.6-2.9,2.2c-5.4,3.3-11.7-0.2-11.8-6.5c-0.1-3.9,0-7.8,0-11.8c0-7.1,0.1-14.2,0-21.4c-0.1-3.5,1.2-6.1,3.8-8.4
			c6.2-5.4,12.2-11,18.5-16.4c2.6-2.3,3.9-4.9,3.8-8.4c-0.1-4.2,0-8.5,0-12.7c0-0.8,0.1-1.5,0.2-2.7c2.9,2.1,5.4,4,8,5.8
			c1.2,0.8,2.3,1.8,3.5,2.5c3.2,2.1,4.7,5.1,4.9,8.9C502,411.9,502,412.7,502,413.5z"/>
	</g>
</g>
</svg>
